<svg width="32" height="32" viewBox="0 0 48 48" xmlns="http://www.w3.org/2000/svg"
   xmlns:svg="http://www.w3.org/2000/svg">
   <defs id="defs1524" />
   <path fill="none" stroke="currentColor" stroke-linecap="round" stroke-linejoin="round"
      d="M18.41 5.5v37m12.09-37v37M9.94 15.35h3.99M9.94 8.47l2-1.09m0 0v7.97m22.5-.52a2.78 2.78 0 0 0 2.1.61h.27a2.32 2.32 0 0 0 2.28-2.28h0a2.32 2.32 0 0 0-2.28-2.28h-2.37V8.42h4.65M26.35 28.24v-8l-4.29 5.38h5.29"
      id="path1514" style="stroke:#61afef;stroke-opacity:1" />
   <circle cx="37.07" cy="25.57" r="2.69" fill="none" stroke="currentColor" stroke-linecap="round"
      stroke-linejoin="round" id="circle1516" style="stroke:#61afef;stroke-opacity:1" />
   <path fill="none" stroke="currentColor" stroke-linecap="round" stroke-linejoin="round"
      d="M39.46 21.19a2.45 2.45 0 0 0-2.19-1h-.2a2.69 2.69 0 0 0-2.7 2.69v2.69M42.5 18h-37m37 12.46h-37" id="path1518"
      style="stroke:#61afef;stroke-opacity:1" />
</svg>