<?xml version="1.0" encoding="UTF-8" standalone="no"?>
<svg
   width="32"
   height="32"
   viewBox="0 0 48 48"
   version="1.1"
   id="svg690"
   sodipodi:docname="icon.svg"
   inkscape:version="1.2.1 (9c6d41e410, 2022-07-14)"
   xmlns:inkscape="http://www.inkscape.org/namespaces/inkscape"
   xmlns:sodipodi="http://sodipodi.sourceforge.net/DTD/sodipodi-0.dtd"
   xmlns="http://www.w3.org/2000/svg"
   xmlns:svg="http://www.w3.org/2000/svg">
  <sodipodi:namedview
     id="namedview692"
     pagecolor="#fefefe"
     bordercolor="#666666"
     borderopacity="1.0"
     inkscape:showpageshadow="2"
     inkscape:pageopacity="0"
     inkscape:pagecheckerboard="0"
     inkscape:deskcolor="#fbfbfc"
     showgrid="false"
     inkscape:zoom="10.085938"
     inkscape:cx="-13.137103"
     inkscape:cy="17.251743"
     inkscape:window-width="1890"
     inkscape:window-height="1020"
     inkscape:window-x="15"
     inkscape:window-y="45"
     inkscape:window-maximized="1"
     inkscape:current-layer="g965" />
  <defs
     id="defs1524" />
  <g
     id="g965"
     transform="matrix(1.0601592,0,0,1.0601592,-1.4438218,-1.4438218)">
    <rect
       style="fill:#212529;stroke:none;stroke-width:1.20383;stroke-linecap:round;stroke-linejoin:round;stroke-dasharray:none;stroke-opacity:1;paint-order:stroke markers fill"
       id="rect1074"
       width="45.276218"
       height="45.276218"
       x="1.3618917"
       y="1.3618917"
       rx="5.3157854"
       ry="5.863049" />
    <g
       id="g958"
       transform="matrix(1.1283924,0,0,1.1295638,-3.0814169,-3.1095305)">
      <path
         fill="none"
         stroke="currentColor"
         stroke-linecap="round"
         stroke-linejoin="round"
         d="M 19.022365,7.5266104 V 40.47339 M 29.787948,7.5266104 V 40.47339 M 11.480224,16.297577 h 3.552909 m -3.552909,-6.12632 1.780907,-0.9705941 m 0,0 v 7.0969141 m 20.035203,-0.463036 a 2.4754607,2.4754607 0 0 0 1.869953,0.543177 h 0.240422 a 2.0658521,2.0658521 0 0 0 2.030234,-2.030234 v 0 A 2.0658521,2.0658521 0 0 0 35.406709,12.31725 h -2.110375 v -2.190515 h 4.140609 M 26.092566,27.775523 v -7.123628 l -3.820046,4.79064 h 4.710499"
         id="path1514"
         style="stroke:#61afef;stroke-width:0.890454;stroke-opacity:1" />
      <circle
         cx="35.638226"
         cy="25.398012"
         r="2.3953199"
         fill="none"
         stroke="currentColor"
         stroke-linecap="round"
         stroke-linejoin="round"
         id="circle1516"
         style="stroke:#61afef;stroke-width:0.890454;stroke-opacity:1" />
      <path
         fill="none"
         stroke="currentColor"
         stroke-linecap="round"
         stroke-linejoin="round"
         d="m 37.766411,21.497826 a 2.1816111,2.1816111 0 0 0 -1.950093,-0.890454 h -0.178091 a 2.3953199,2.3953199 0 0 0 -2.404224,2.39532 v 2.39532 M 40.47339,18.657279 H 7.5266104 M 40.47339,29.75233 H 7.5266104"
         id="path1518"
         style="stroke:#61afef;stroke-width:0.890454;stroke-opacity:1" />
    </g>
  </g>
</svg>
